{"title":"TPB_AFK.(2013)-hd.1080p-h264-Remastered[)(]Ac3-5.1-(Sw+En)+(En-s","uid":8148428,"size":8635383397,"categoryP":"video","categoryS":"hd___movies","magnet":"?xt=urn:btih:189ffef88725d7668ab08c78cbbcca202ebaa208&amp;dn=TPB_AFK.%282013%29-hd.1080p-h264-Remastered%5B%29%28%5DAc3-5.1-%28Sw%2BEn%29%2B%28En-s&amp;tr=udp%3A%2F%2Ftracker.openbittorrent.com%3A80&amp;tr=udp%3A%2F%2Fopen.demonii.com%3A1337&amp;tr=udp%3A%2F%2Ftracker.coppersurfer.tk%3A6969&amp;tr=udp%3A%2F%2Fexodus.desync.com%3A6969","seeders":1,"leechers":3,"uploader":"Tyr3ll","files":-1,"time":1360979722,"description":"Here is our third remastered version ,this time based on the Original mvk h.264\nhd.1080p from Simon Klose.\nRemastered as same format (mkv h264) but now to AC3-5.1/6-channels/48 Khz/16 Bit/512 Kbps\n\nResult is very acceptable and sound has been sucessfully upmixed to 6 channels anyway.\nStill more pleasant than only 2 channels so.\n\nSpoken language : Swedish+English\n\nSubTitle : English \n\nFinal size : 8,04 Go (BD9 or DVD 8.5)\nH264 here has been executed with NVidia CUDA.\n\n__________________________\n\nMore details :\n\n\n    Complete name : TPB_AFK.(2013)-hd.1080p-h264-Remastered[)(]Ac3-5.1-(Sw+En)+(En-sub).mkv\n\n    Format : Matroska\n    Format version : Version 2\n    File size : 8.04 GiB\n    Duration : 1h 22mn\n    Overall bit rate mode : Variable\n    Overall bit rate : 14.0 Mbps\n    Writing application : Lavf51.12.1\n    Writing library : Lavf51.12.1\n  Video #1\n    ID : 1\n    Format : AVC\n    Format/Info : Advanced Video Codec\n    Format profile : &lt;a class=&quot;__cf_email__&quot; href=&quot;/cdn-cgi/l/email-protection&quot; data-cfemail=&quot;bffddeccdad3d6d1dafff38b918f&quot;&gt;[email&amp;#160;protected]&lt;/a&gt;&lt;script cf-hash='f9e31' type=&quot;text/javascript&quot;&gt;\n/* &lt;![CDATA[ */!function(){try{var t=&quot;currentScript&quot;in document?document.currentScript:function(){for(var t=document.getElementsByTagName(&quot;script&quot;),e=t.length;e--;)if(t[e].getAttribute(&quot;cf-hash&quot;))return t[e]}();if(t&amp;&amp;t.previousSibling){var e,r,n,i,c=t.previousSibling,a=c.getAttribute(&quot;data-cfemail&quot;);if(a){for(e=&quot;&quot;,r=parseInt(a.substr(0,2),16),n=2;a.length-n;n+=2)i=parseInt(a.substr(n,2),16)^r,e+=String.fromCharCode(i);e=document.createTextNode(e),c.parentNode.replaceChild(e,c)}}}catch(u){}}();/* ]]&gt; */&lt;/script&gt;\n    Format settings, CABAC : No\n    Format settings, ReFrames : 1 frame\n    Format settings, GOP : M=1, N=12\n    Codec ID : V_MPEG4/ISO/AVC\n    Duration : 1h 22mn\n    Bit rate mode : Variable\n    Bit rate : 13.2 Mbps\n    Maximum bit rate : 19.5 Mbps\n    Width : 1 920 pixels\n    Height : 1 080 pixels\n    Display aspect ratio : 16:9\n    Frame rate mode : Constant\n    Frame rate : 25.000 fps\n    Original frame rate : 24.000 fps\n    Color space : YUV\n    Chroma subsampling : 4:2:0\n    Bit depth : 8 bits\n    Scan type : Progressive\n    Bits/(Pixel*Frame) : 0.255\n    Stream size : 7.59 GiB (94%)\n    Language : English\n    Default : Yes\n    Forced : No\n\n  Audio #2\n    ID : 2\n    Format : AC-3\n    Format/Info : Audio Coding 3\n    Mode extension : CM (complete main)\n    Format settings, Endianness : Big\n    Codec ID : A_AC3\n    Duration : 1h 22mn\n    Bit rate mode : Constant\n    Bit rate : 512 Kbps\n    Channel(s) : 6 channels\n    Channel positions : Front: L C R, Side: L R, LFE\n    Sampling rate : 48.0 KHz\n    Bit depth : 16 bits\n    Compression mode : Lossy\n    Stream size : 301 MiB (4%)\n    Language : English\n    Default : Yes\n    Forced : No\n\n  Text #3\n    ID : 3\n    Format : UTF-8\n    Codec ID : S_TEXT/UTF8\n    Codec ID/Info : UTF-8 Plain Text\n    Language : English\n    Default : Yes\n    Forced : No\n\nEnjoy and seed,please.\n\nBest regards\n\n","torrent":{"xt":"urn:btih:189ffef88725d7668ab08c78cbbcca202ebaa208","amp;dn":"TPB_AFK.%282013%29-hd.1080p-h264-Remastered%5B%29%28%5DAc3-5.1-%28Sw%2BEn%29%2B%28En-s","amp;tr":["udp%3A%2F%2Ftracker.openbittorrent.com%3A80","udp%3A%2F%2Fopen.demonii.com%3A1337","udp%3A%2F%2Ftracker.coppersurfer.tk%3A6969","udp%3A%2F%2Fexodus.desync.com%3A6969"],"infoHash":"189ffef88725d7668ab08c78cbbcca202ebaa208","infoHashBuffer":{"type":"Buffer","data":[24,159,254,248,135,37,215,102,138,176,140,120,203,188,202,32,46,186,162,8]},"announce":[],"urlList":[]}}